<svg width="16" height="16" viewBox="0 0 16 16" fill="none" xmlns="http://www.w3.org/2000/svg">
<path d="M9.7453 2.76768C9.14484 2.6014 8.51406 2.5762 7.90224 2.69404C7.29043 2.81189 6.71414 3.06959 6.2184 3.44701C5.72266 3.82444 5.32089 4.31137 5.04448 4.86976C4.76807 5.42816 4.62451 6.0429 4.625 6.66596C4.62528 7.01114 4.34568 7.29118 4.0005 7.29146C3.65532 7.29173 3.37528 7.01213 3.375 6.66695C3.37436 5.85119 3.56232 5.04632 3.92422 4.31523C4.28611 3.58413 4.81214 2.94661 5.4612 2.45245C6.11026 1.9583 6.86478 1.62089 7.66582 1.4666C8.46686 1.31231 9.29273 1.34531 10.0789 1.56302C10.8651 1.78073 11.5903 2.17726 12.1978 2.72162C12.8054 3.26599 13.2789 3.94345 13.5813 4.70109C13.8837 5.45873 14.0069 6.27603 13.9411 7.08914C13.8754 7.90225 13.6226 8.68916 13.2024 9.38838C13.1914 9.40667 13.1795 9.42439 13.1667 9.44146C12.7595 9.98436 12.2786 10.4677 11.7378 10.8776C11.2279 11.3647 10.8338 11.9603 10.5848 12.6204C10.5755 12.6449 10.5647 12.6689 10.5524 12.6921C10.3024 13.1645 9.95111 13.5758 9.52356 13.8965C9.09601 14.2172 8.60284 14.4394 8.07936 14.5472C7.55588 14.6549 7.01505 14.6456 6.49559 14.5199C5.97613 14.3942 5.4909 14.1551 5.07465 13.8199C4.80581 13.6034 4.76339 13.2099 4.9799 12.9411C5.19641 12.6723 5.58986 12.6298 5.85869 12.8464C6.13141 13.066 6.44932 13.2226 6.78965 13.305C7.12999 13.3874 7.48433 13.3935 7.8273 13.3228C8.17027 13.2522 8.49338 13.1067 8.7735 12.8965C9.044 12.6936 9.26794 12.4354 9.43048 12.1392C9.75134 11.3067 10.2551 10.5568 10.9048 9.94483C10.9218 9.92883 10.9397 9.91379 10.9583 9.89979C11.4077 9.56278 11.8078 9.16478 12.1472 8.71732C12.4584 8.1901 12.6458 7.59893 12.6952 6.98842C12.7454 6.36738 12.6513 5.74315 12.4204 5.16448C12.1894 4.58581 11.8277 4.06838 11.3637 3.6526C10.8997 3.23683 10.3458 2.93397 9.7453 2.76768Z" fill="#E0E0E0"/>
<path d="M9.22076 5.38329C9.01019 5.29064 8.77974 5.2523 8.55052 5.27179C8.3213 5.29127 8.10063 5.36796 7.90872 5.49483C7.71682 5.62169 7.55981 5.79468 7.45208 5.99794C7.42747 6.04437 7.40562 6.09203 7.38658 6.14069C7.46111 6.16593 7.5343 6.19562 7.60574 6.22968C7.90767 6.37362 8.16866 6.59102 8.36481 6.86197C8.56095 7.13291 8.68598 7.44874 8.72844 7.78052C8.7709 8.11231 8.72944 8.44944 8.60785 8.76105C8.48626 9.07266 8.28843 9.34878 8.03248 9.56412C7.77653 9.77947 7.47064 9.92715 7.14283 9.99365C6.81502 10.0601 6.47576 10.0433 6.15613 9.94475C5.8365 9.84616 5.54671 9.66895 5.31331 9.42936C5.07245 9.1821 5.07763 8.78641 5.32488 8.54555C5.57214 8.30469 5.96783 8.30987 6.20869 8.55713C6.29616 8.64692 6.40476 8.71333 6.52455 8.75027C6.64433 8.78722 6.77147 8.79352 6.89433 8.7686C7.01718 8.74368 7.13181 8.68833 7.22773 8.60763C7.32366 8.52693 7.39779 8.42345 7.44336 8.30667C7.48893 8.18989 7.50447 8.06354 7.48855 7.9392C7.47264 7.81486 7.42579 7.6965 7.35228 7.59496C7.27877 7.49342 7.18096 7.41195 7.06781 7.358C6.96881 7.31081 6.86085 7.286 6.75156 7.2851C6.72636 7.2885 6.70068 7.29041 6.67461 7.29072C6.32946 7.29485 6.04631 7.01839 6.04218 6.67324C6.03693 6.23409 6.14195 5.80063 6.34761 5.41258C6.55328 5.02453 6.85302 4.69428 7.21939 4.45208C7.58575 4.20989 8.00703 4.06348 8.44464 4.02628C8.88224 3.98908 9.32219 4.06227 9.72418 4.23914C10.1262 4.41602 10.4774 4.69093 10.7456 5.0387C11.0138 5.38646 11.1905 5.79597 11.2594 6.22971C11.3284 6.66344 11.2874 7.10755 11.1403 7.52135C10.9931 7.93515 10.7445 8.30542 10.4172 8.59824C10.1599 8.82838 9.76481 8.8064 9.53466 8.54914C9.30452 8.29188 9.3265 7.89677 9.58376 7.66662C9.75521 7.51324 9.88544 7.31929 9.96252 7.10254C10.0396 6.88579 10.0611 6.65316 10.0249 6.42596C9.98882 6.19877 9.89628 5.98426 9.75578 5.8021C9.61528 5.61994 9.43133 5.47594 9.22076 5.38329Z" fill="#E0E0E0"/>
</svg>
