<svg width="43" height="42" viewBox="0 0 43 42" fill="none" xmlns="http://www.w3.org/2000/svg">
<g filter="url(#filter0_d)">
<path d="M25.25 18H27.125C27.6223 18 28.0992 18.1975 28.4508 18.5492C28.8025 18.9008 29 19.3777 29 19.875V28.875C29 29.3723 28.8025 29.8492 28.4508 30.2008C28.0992 30.5525 27.6223 30.75 27.125 30.75H15.875C15.3777 30.75 14.9008 30.5525 14.5492 30.2008C14.1975 29.8492 14 29.3723 14 28.875V19.875C14 19.3777 14.1975 18.9008 14.5492 18.5492C14.9008 18.1975 15.3777 18 15.875 18H17.75" stroke="#F0F1F2" stroke-linecap="round" stroke-linejoin="round"/>
<path d="M25.25 15L21.5 11.25L17.75 15" stroke="#F0F1F2" stroke-linecap="round" stroke-linejoin="round"/>
<path d="M21.5 24.0469V11.25" stroke="#F0F1F2" stroke-linecap="round" stroke-linejoin="round"/>
</g>
<rect x="1" y="0.5" width="41" height="41" rx="20.5" stroke="#424242"/>
<defs>
<filter id="filter0_d" x="5.5" y="5" width="32" height="32" filterUnits="userSpaceOnUse" color-interpolation-filters="sRGB">
<feFlood flood-opacity="0" result="BackgroundImageFix"/>
<feColorMatrix in="SourceAlpha" type="matrix" values="0 0 0 0 0 0 0 0 0 0 0 0 0 0 0 0 0 0 127 0"/>
<feOffset/>
<feGaussianBlur stdDeviation="2"/>
<feColorMatrix type="matrix" values="0 0 0 0 0 0 0 0 0 0 0 0 0 0 0 0 0 0 0.25 0"/>
<feBlend mode="normal" in2="BackgroundImageFix" result="effect1_dropShadow"/>
<feBlend mode="normal" in="SourceGraphic" in2="effect1_dropShadow" result="shape"/>
</filter>
</defs>
</svg>
